<svg id="Layer_1" data-name="Layer 1" xmlns="http://www.w3.org/2000/svg" viewBox="0 0 500 500"><defs><style>.cls-1{fill:#ffc332;}</style></defs><title>Logo Doang</title><path class="cls-1" d="M119.86,66.28a1,1,0,0,0-.84,0,12.12,12.12,0,0,0-1.52,1A220.93,220.93,0,0,0,94,86.94c-4,3.83-7.82,7.76-11.51,11.87a238.72,238.72,0,0,0-18.6,23.6A224.14,224.14,0,0,0,44.45,157c-3.16,6.94-5.86,14.06-8.35,21.27a6.39,6.39,0,0,0,.52,5.71c1.86,3.21,3.53,6.53,5.35,9.76,8.45,15,17.22,29.87,26.46,44.44q17.38,27.44,36.63,53.61c.64.87,1.07,2,2.21,2.37,1.07-1,.6-2.23.56-3.35-.18-5.51-.3-11-.75-16.52-.58-7.1-.62-14.21-.83-21.32-.36-11.52-.12-23.05-.22-34.58-.08-9.53.71-19,.73-28.55,0-.4,0-.8.06-1.2q.48-7.8,1-15.6c.46-7,.81-14,1.42-21,1-10.88,2.05-21.75,3.34-32.59,1.81-15.13,3.92-30.22,6.48-45.24.41-2.37.78-4.75,1.18-7.19C120.11,66.77,120.06,66.4,119.86,66.28Z"/><path class="cls-1" d="M283.48,27a15.83,15.83,0,0,0-2.33-.57,200.58,200.58,0,0,0-24.85-2c-1.4,0-2.8,0-4.21-.05A211,211,0,0,0,223,25.89a225.19,225.19,0,0,0-26,4.7,231.13,231.13,0,0,0-44.14,15.6,6.94,6.94,0,0,0-4.15,4.75c-1,3.87-2.27,7.68-3.41,11.53-5.65,19.13-10.54,38.46-14.92,57.92q-5.79,25.81-10.06,51.94c-.29,1.78-.57,3.56-.82,5.11,0,.64,0,1.11.51,1.19a1,1,0,0,0,.78-.31c1.9-2.06,3.81-4.12,5.64-6.25,8.1-9.42,16.5-18.58,25-27.65,6.43-6.87,13.06-13.57,19.66-20.29,2.45-2.5,5.07-4.84,7.6-7.27,4.75-4.6,9.45-9.25,14.29-13.76q12.87-12,26.12-23.55Q231.19,69,243.7,58.87q18.81-15.24,38.38-29.49a17.29,17.29,0,0,0,1.6-1.35A.63.63,0,0,0,283.48,27Z"/><path class="cls-1" d="M29,216.58c-.34-.46-.64-1.19-1.36-.94s-.64,1-.75,1.54-.12,1-.2,1.49c-.58,4.07-1.1,8.15-1.34,12.25-.32,5.6-.66,11.2-.92,16.8-.2,4.41.28,8.81.41,13.21a197.09,197.09,0,0,0,2.23,23A223.31,223.31,0,0,0,38.2,327.58a239.86,239.86,0,0,0,11.44,26.15,6,6,0,0,0,4.23,3.44c2.73.65,5.41,1.5,8.11,2.24q28.56,7.84,57.56,13.91,24.28,5.06,48.81,8.82c4.24.66,8.5,1.26,12.75,1.89l.32-.48c-.55-.56-1.06-1.15-1.64-1.67-3.75-3.32-7.49-6.65-11.27-9.94-9.23-8-18.15-16.39-26.94-24.88-9.29-9-18.43-18.13-27.32-27.52-9.16-9.68-18.23-19.45-27-29.52-6.49-7.49-13-15-19.3-22.65Q51,246.73,35.18,225.1C33.11,222.27,31.07,219.41,29,216.58Z"/><path class="cls-1" d="M246.14,127.44c-2.82,0-5.6.37-8.4.47a99.88,99.88,0,0,0-14,1.66A126.25,126.25,0,0,0,189,141.15a118,118,0,0,0-38,29.95c-17,20.32-25.93,43.82-27.34,70.19a112.57,112.57,0,0,0,2.11,27.83,124.82,124.82,0,0,0,16.94,42.5,129.35,129.35,0,0,0,57.07,49.13,132.51,132.51,0,0,0,55.44,11.47,89.27,89.27,0,0,0,14.17-.85A126.88,126.88,0,0,0,311,358.84a119,119,0,0,0,37.1-28.71A117.55,117.55,0,0,0,367.85,298a121.38,121.38,0,0,0,8.88-44.27c0-2.71-.3-5.4-.43-8.1a114.47,114.47,0,0,0-5.56-29.16,122.82,122.82,0,0,0-17.63-34.72,126.19,126.19,0,0,0-20.48-22.34,132.05,132.05,0,0,0-29.73-19.17A135.51,135.51,0,0,0,246.14,127.44ZM145.24,266.66a6.27,6.27,0,0,1,6.14-6.13,6.14,6.14,0,0,1,0,12.27A6.37,6.37,0,0,1,145.24,266.66Zm63.56,76.11a6.06,6.06,0,0,1-7.28,3.29,27.3,27.3,0,0,1-3.9-1.55,92.19,92.19,0,0,1-19.44-12.44,86.42,86.42,0,0,1-15.07-16.26,87.78,87.78,0,0,1-13.69-28.89,13.56,13.56,0,0,1-.46-2.35,6.24,6.24,0,0,1,6.2-6.6,6,6,0,0,1,5.46,3.7,23.81,23.81,0,0,1,.92,2.86A77,77,0,0,0,184,320.85a72.22,72.22,0,0,0,17.9,12c1,.47,2,.93,3,1.42a13.65,13.65,0,0,1,1.82,1A5.9,5.9,0,0,1,208.8,342.77Zm147.69-58.7a7.38,7.38,0,0,1-7.19,7.33,7.38,7.38,0,0,1,.07-14.76A7.4,7.4,0,0,1,356.49,284.07ZM316.82,174.41a7.2,7.2,0,0,1,9-1.67,11.57,11.57,0,0,1,2.6,2,104.55,104.55,0,0,1,14.7,17.81A106.67,106.67,0,0,1,359,232.81a99.67,99.67,0,0,1,1.63,18.9,72.8,72.8,0,0,1-.65,11,13.38,13.38,0,0,1-.31,1.77,7.32,7.32,0,0,1-8.08,5.64,7.65,7.65,0,0,1-6.42-7.57c0-.3,0-.6.06-.9a119.13,119.13,0,0,0,.21-17.72,82.42,82.42,0,0,0-4.63-22.59A92.25,92.25,0,0,0,325,192.87c-2-2.47-4.26-4.79-6.41-7.16-.6-.67-1.29-1.27-1.86-2A7,7,0,0,1,316.82,174.41Z"/><path class="cls-1" d="M70.93,387.14c3.76,4.83,7.54,9.65,11.74,14.09,6.27,6.64,12.65,13.15,19.55,19.15A224,224,0,0,0,178,463.76c.85.29,1.72.53,2.32.71a4.67,4.67,0,0,0,3.09-.83c5.38-2.93,10.77-5.82,16.12-8.78,21.16-11.69,41.74-24.35,61.91-37.67,10-6.64,19.89-13.54,29.67-20.56.65-.47,1.29-.95,1.89-1.48a.89.89,0,0,0,.3-.74.86.86,0,0,0-.68-.44c-3,0-6-.11-9,.1-6.19.43-12.38,1-18.6,1.1-.6,0-1.2.06-1.8.08-7.41.34-14.81.78-22.22,1-6.42.19-12.84.14-19.26.14-14.43,0-28.87.05-43.29-.67-5.21-.26-10.41-.48-15.62-.72l-.6-.05c-4.5-.33-9-.65-13.49-1-6-.45-12-.88-18-1.42-5-.45-10-1-15-1.56-7.87-.91-15.73-1.82-23.58-2.85-6.76-.88-13.5-1.93-20.24-2.9-.58-.09-1.26-.35-1.6.34-.26.51.15.94.43,1.35Z"/><path class="cls-1" d="M353.58,110q14.79,1.52,29.56,3.33,21.94,2.69,43.7,6.56c2.27.4,4.55.75,6.83,1.08a.77.77,0,0,0,.75-1.21,18.22,18.22,0,0,0-1.14-1.76,232.33,232.33,0,0,0-20.8-24.9A216.22,216.22,0,0,0,392.77,75,222,222,0,0,0,331.4,39.39c-3.56-1.36-7.19-2.52-10.74-3.88a5.76,5.76,0,0,0-5.43.51c-1.7,1-3.49,2-5.24,2.95q-25.83,14.51-50.7,30.62-24.6,16-48.19,33.39c-1.45,1.06-2.87,2.18-4.3,3.29a.57.57,0,0,0-.2.78.74.74,0,0,0,.48.29c1.51,0,3,0,4.51,0,6.48-.69,13-.56,19.51-.94,8.49-.49,17-.38,25.53-.62,10-.28,20,0,30.06.29,8.41.21,16.81.74,25.23.82.4,0,.8,0,1.2.07,7.5.52,15,1,22.48,1.58C341.6,109,347.6,109.37,353.58,110Z"/><path class="cls-1" d="M379.79,433.82c.46.35,1,.1,1.38-.18.75-.5,1.49-1,2.22-1.56a225.64,225.64,0,0,0,27.91-24.22,219.83,219.83,0,0,0,19.95-23.27A222.37,222.37,0,0,0,458,338c2.64-6.29,5-12.67,7.11-19.17.33-1.05.55-2.13.71-2.75a7.33,7.33,0,0,0-1.34-4.08q-11.83-21.14-24.72-41.64-19.56-31.08-41.5-60.52c-1-1.33-1.74-2.92-3.29-3.79-1.17,1.64-.32,3.45-.46,5.18,0,.1,0,.2,0,.3.34,7,.76,14,1,21,.18,5.61.15,11.23.15,16.85,0,16.34.16,32.68-.69,49-.27,5.2-.42,10.42-.77,15.62-.45,6.9-1,13.79-1.58,20.68-.63,7.49-1.25,15-2,22.46s-1.76,14.93-2.71,22.39q-2.65,20.88-6.34,41.62c-.67,3.75-1.35,7.5-2,11.25C379.4,432.91,379.33,433.48,379.79,433.82Z"/><path class="cls-1" d="M473.22,281.35c.59-.22.46-1,.54-1.62a202,202,0,0,0,1.8-23.06,238.48,238.48,0,0,0-2.08-39,229.46,229.46,0,0,0-18.64-62.93c-.29-.64-.64-1.25-.91-1.9a4.88,4.88,0,0,0-3.45-3.06c-1.16-.31-2.29-.75-3.44-1.09-5.19-1.55-10.37-3.12-15.56-4.62q-26.73-7.76-53.86-13.9c-16.43-3.72-32.95-7-49.54-9.85-1.36-.24-2.73-.41-4.09-.61l-.22.61c1,.86,1.9,1.75,2.88,2.59,3.9,3.31,7.72,6.7,11.41,10.25,2.89,2.77,5.82,5.51,8.81,8.17,9.52,8.46,18.54,17.45,27.74,26.24,4.2,4,8.23,8.21,12.19,12.47,4.3,4.62,8.78,9.06,13.1,13.67q13.77,14.72,26.87,30c10.4,12.08,20.51,24.39,30.21,37,4.94,6.45,9.79,13,14.71,19.42C472.08,280.72,472.35,281.68,473.22,281.35Z"/><path class="cls-1" d="M216.05,472.92a11.92,11.92,0,0,0,1.47.28c2.09.27,4.18.51,6.26.77A240.26,240.26,0,0,0,248,475.62c9,0,16-.48,22.84-1.06,6.19-.52,12.35-1.35,18.47-2.42a225.28,225.28,0,0,0,55.81-17.43c5.06-2.34,4.37-2,5.83-6.52q9-28.06,16.13-56.67c2.73-11,5.25-22,7.67-33.1,2.31-10.57,4.34-21.21,6.19-31.87.12-.69.24-1.39.32-2.08a.63.63,0,0,0-.22-.52.57.57,0,0,0-.54,0c-.51.47-1,1-1.47,1.49-4.84,5.36-9.61,10.77-14.52,16.06-6.13,6.61-12.3,13.19-18.59,19.65-4.83,4.95-9.71,9.84-14.77,14.56-5.57,5.2-10.89,10.65-16.54,15.76-3.42,3.1-6.74,6.3-10.18,9.36-8.4,7.45-16.83,14.86-25.44,22.06-12.31,10.29-24.82,20.32-37.64,30-7.84,5.9-15.84,11.62-23.76,17.42-.65.47-1.29.95-1.9,1.46A.67.67,0,0,0,216.05,472.92Z"/></svg>